<svg xmlns="http://www.w3.org/2000/svg" width="5.813" height="10.031"><defs><filter id="a" x="908" y="706.125" width="5.813" height="10.031" filterUnits="userSpaceOnUse"><feFlood result="flood" flood-color="#fff"/><feComposite result="composite" operator="in" in2="SourceGraphic"/><feBlend result="blend" in2="SourceGraphic"/></filter></defs><path data-name="Rounded Rectangle 1 copy 2" d="M913.679 715.44l-4.946-4.611a.46.46 0 00-.618 0 .389.389 0 000 .577l4.945 4.611a.461.461 0 00.619 0 .39.39 0 000-.577zm-4.946-4.034l4.946-4.611a.39.39 0 000-.577.461.461 0 00-.619 0l-4.945 4.611a.389.389 0 000 .577.46.46 0 00.618 0z" transform="translate(-908 -706.125)" fill-rule="evenodd" filter="url(#a)"/></svg>