<svg xmlns="http://www.w3.org/2000/svg" xmlns:xlink="http://www.w3.org/1999/xlink" width="5.53" height="10.313" viewBox="0 0 5.53 10.313">
  <defs>
    <style>
      .cls-1 {
        fill-rule: evenodd;
        filter: url(#filter);
      }
    </style>
    <filter id="filter" x="1007.47" y="706" width="5.53" height="10.313" filterUnits="userSpaceOnUse">
      <feFlood result="flood" flood-color="#fff"/>
      <feComposite result="composite" operator="in" in2="SourceGraphic"/>
      <feBlend result="blend" in2="SourceGraphic"/>
    </filter>
  </defs>
  <path id="Rounded_Rectangle_1_copy" data-name="Rounded Rectangle 1 copy" class="cls-1" d="M1007.58,715.577l4.7-4.744a0.417,0.417,0,0,1,.59,0,0.428,0.428,0,0,1,0,.594l-4.71,4.743A0.415,0.415,0,0,1,1007.58,715.577Zm4.7-4.15-4.7-4.743a0.41,0.41,0,0,1,0-.594,0.405,0.405,0,0,1,.58,0l4.71,4.743a0.428,0.428,0,0,1,0,.594A0.415,0.415,0,0,1,1012.28,711.427Z" transform="translate(-1007.47 -706)"/>
</svg>
