<svg xmlns="http://www.w3.org/2000/svg" xmlns:xlink="http://www.w3.org/1999/xlink" width="5.813" height="10.031" viewBox="0 0 5.813 10.031">
  <defs>
    <style>
      .cls-1 {
        fill-rule: evenodd;
        filter: url(#filter);
      }
    </style>
    <filter id="filter" x="908" y="706.125" width="5.813" height="10.031" filterUnits="userSpaceOnUse">
      <feFlood result="flood" flood-color="#fff"/>
      <feComposite result="composite" operator="in" in2="SourceGraphic"/>
      <feBlend result="blend" in2="SourceGraphic"/>
    </filter>
  </defs>
  <path id="Rounded_Rectangle_1_copy_2" data-name="Rounded Rectangle 1 copy 2" class="cls-1" d="M913.679,715.44l-4.946-4.611a0.46,0.46,0,0,0-.618,0,0.389,0.389,0,0,0,0,.577l4.945,4.611a0.461,0.461,0,0,0,.619,0A0.39,0.39,0,0,0,913.679,715.44Zm-4.946-4.034,4.946-4.611a0.39,0.39,0,0,0,0-.577,0.461,0.461,0,0,0-.619,0l-4.945,4.611a0.389,0.389,0,0,0,0,.577A0.46,0.46,0,0,0,908.733,711.406Z" transform="translate(-908 -706.125)"/>
</svg>
